<svg width="13px" height="117px" viewBox="0 0 13 117" version="1.1" xmlns="http://www.w3.org/2000/svg" xmlns:xlink="http://www.w3.org/1999/xlink">
    <path d="M-51.6796875,64 L-51.6796875,52.625 L-47.9609375,52.625 C-46.7265563,52.625 -45.7981802,52.8802058 -45.1757812,53.390625 C-44.5533823,53.9010442 -44.2421875,54.656245 -44.2421875,55.65625 C-44.2421875,56.1875027 -44.3932277,56.65755 -44.6953125,57.0664062 C-44.9973973,57.4752625 -45.4088516,57.7916655 -45.9296875,58.015625 C-45.3151011,58.1875009 -44.8294289,58.5143205 -44.4726562,58.9960938 C-44.1158836,59.477867 -43.9375,60.05208 -43.9375,60.71875 C-43.9375,61.7395884 -44.2682259,62.5416637 -44.9296875,63.125 C-45.5911491,63.7083363 -46.5260356,64 -47.734375,64 L-51.6796875,64 Z M-50.1796875,58.6796875 L-50.1796875,62.7734375 L-47.703125,62.7734375 C-47.0052048,62.7734375 -46.4544291,62.5924497 -46.0507812,62.2304688 C-45.6471334,61.8684878 -45.4453125,61.3697948 -45.4453125,60.734375 C-45.4453125,59.3645765 -46.1900967,58.6796875 -47.6796875,58.6796875 L-50.1796875,58.6796875 Z M-50.1796875,57.4765625 L-47.9140625,57.4765625 C-47.2578092,57.4765625 -46.7330749,57.3125016 -46.3398438,56.984375 C-45.9466126,56.6562484 -45.75,56.2109403 -45.75,55.6484375 C-45.75,55.0234344 -45.9322898,54.5690118 -46.296875,54.2851562 C-46.6614602,54.0013007 -47.2161421,53.859375 -47.9609375,53.859375 L-50.1796875,53.859375 L-50.1796875,57.4765625 Z M-33.3515625,60.390625 C-33.4921882,61.593756 -33.9361942,62.5221321 -34.6835938,63.1757812 C-35.4309933,63.8294304 -36.424473,64.15625 -37.6640625,64.15625 C-39.0078192,64.15625 -40.0846314,63.674484 -40.8945312,62.7109375 C-41.7044311,61.747391 -42.109375,60.4583414 -42.109375,58.84375 L-42.109375,57.75 C-42.109375,56.692703 -41.9205748,55.7630248 -41.5429688,54.9609375 C-41.1653627,54.1588502 -40.6302118,53.5429709 -39.9375,53.1132812 C-39.2447882,52.6835916 -38.4427129,52.46875 -37.53125,52.46875 C-36.3229106,52.46875 -35.3541703,52.8059862 -34.625,53.4804688 C-33.8958297,54.1549513 -33.4713548,55.0885357 -33.3515625,56.28125 L-34.859375,56.28125 C-34.989584,55.3749955 -35.2721332,54.718752 -35.7070312,54.3125 C-36.1419293,53.906248 -36.7499961,53.703125 -37.53125,53.703125 C-38.4895881,53.703125 -39.2408827,54.0572881 -39.7851562,54.765625 C-40.3294298,55.4739619 -40.6015625,56.4817643 -40.6015625,57.7890625 L-40.6015625,58.890625 C-40.6015625,60.1250062 -40.3437526,61.1067672 -39.828125,61.8359375 C-39.3124974,62.5651078 -38.5911505,62.9296875 -37.6640625,62.9296875 C-36.830725,62.9296875 -36.1914085,62.7408873 -35.7460938,62.3632812 C-35.300779,61.9856752 -35.0052091,61.3281297 -34.859375,60.390625 L-33.3515625,60.390625 Z M-24.875,58.7421875 L-29.8046875,58.7421875 L-29.8046875,62.7734375 L-24.078125,62.7734375 L-24.078125,64 L-31.3046875,64 L-31.3046875,52.625 L-24.15625,52.625 L-24.15625,53.859375 L-29.8046875,53.859375 L-29.8046875,57.515625 L-24.875,57.515625 L-24.875,58.7421875 Z M-18.25,64 L-18.25,52.625 L-14.53125,52.625 C-13.2968688,52.625 -12.3684927,52.8802058 -11.7460938,53.390625 C-11.1236948,53.9010442 -10.8125,54.656245 -10.8125,55.65625 C-10.8125,56.1875027 -10.9635402,56.65755 -11.265625,57.0664062 C-11.5677098,57.4752625 -11.9791641,57.7916655 -12.5,58.015625 C-11.8854136,58.1875009 -11.3997414,58.5143205 -11.0429688,58.9960938 C-10.6861961,59.477867 -10.5078125,60.05208 -10.5078125,60.71875 C-10.5078125,61.7395884 -10.8385384,62.5416637 -11.5,63.125 C-12.1614616,63.7083363 -13.0963481,64 -14.3046875,64 L-18.25,64 Z M-16.75,58.6796875 L-16.75,62.7734375 L-14.2734375,62.7734375 C-13.5755173,62.7734375 -13.0247416,62.5924497 -12.6210938,62.2304688 C-12.2174459,61.8684878 -12.015625,61.3697948 -12.015625,60.734375 C-12.015625,59.3645765 -12.7604092,58.6796875 -14.25,58.6796875 L-16.75,58.6796875 Z M-16.75,57.4765625 L-14.484375,57.4765625 C-13.8281217,57.4765625 -13.3033874,57.3125016 -12.9101562,56.984375 C-12.5169251,56.6562484 -12.3203125,56.2109403 -12.3203125,55.6484375 C-12.3203125,55.0234344 -12.5026023,54.5690118 -12.8671875,54.2851562 C-13.2317727,54.0013007 -13.7864546,53.859375 -14.53125,53.859375 L-16.75,53.859375 L-16.75,57.4765625 Z M-2.0078125,61.03125 L-6.7734375,61.03125 L-7.84375,64 L-9.390625,64 L-5.046875,52.625 L-3.734375,52.625 L0.6171875,64 L-0.921875,64 L-2.0078125,61.03125 Z M-6.3203125,59.796875 L-2.453125,59.796875 L-4.390625,54.4765625 L-6.3203125,59.796875 Z M5.1015625,58.890625 L3.71875,58.890625 L3.71875,64 L2.21875,64 L2.21875,52.625 L3.71875,52.625 L3.71875,57.640625 L4.890625,57.640625 L8.8671875,52.625 L10.734375,52.625 L6.390625,58.140625 L11.0546875,64 L9.21875,64 L5.1015625,58.890625 Z M18.7109375,61.03125 L13.9453125,61.03125 L12.875,64 L11.328125,64 L15.671875,52.625 L16.984375,52.625 L21.3359375,64 L19.796875,64 L18.7109375,61.03125 Z M14.3984375,59.796875 L18.265625,59.796875 L16.328125,54.4765625 L14.3984375,59.796875 Z M31.609375,64 L30.1015625,64 L30.1015625,58.7421875 L24.3671875,58.7421875 L24.3671875,64 L22.8671875,64 L22.8671875,52.625 L24.3671875,52.625 L24.3671875,57.515625 L30.1015625,57.515625 L30.1015625,52.625 L31.609375,52.625 L31.609375,64 Z M42.640625,60.390625 C42.4999993,61.593756 42.0559933,62.5221321 41.3085938,63.1757812 C40.5611942,63.8294304 39.5677145,64.15625 38.328125,64.15625 C36.9843683,64.15625 35.9075561,63.674484 35.0976562,62.7109375 C34.2877564,61.747391 33.8828125,60.4583414 33.8828125,58.84375 L33.8828125,57.75 C33.8828125,56.692703 34.0716127,55.7630248 34.4492188,54.9609375 C34.8268248,54.1588502 35.3619757,53.5429709 36.0546875,53.1132812 C36.7473993,52.6835916 37.5494746,52.46875 38.4609375,52.46875 C39.6692769,52.46875 40.6380172,52.8059862 41.3671875,53.4804688 C42.0963578,54.1549513 42.5208327,55.0885357 42.640625,56.28125 L41.1328125,56.28125 C41.0026035,55.3749955 40.7200543,54.718752 40.2851562,54.3125 C39.8502582,53.906248 39.2421914,53.703125 38.4609375,53.703125 C37.5025994,53.703125 36.7513048,54.0572881 36.2070312,54.765625 C35.6627577,55.4739619 35.390625,56.4817643 35.390625,57.7890625 L35.390625,58.890625 C35.390625,60.1250062 35.6484349,61.1067672 36.1640625,61.8359375 C36.6796901,62.5651078 37.401037,62.9296875 38.328125,62.9296875 C39.1614625,62.9296875 39.800779,62.7408873 40.2460938,62.3632812 C40.6914085,61.9856752 40.9869784,61.3281297 41.1328125,60.390625 L42.640625,60.390625 Z M51.859375,52.625 L53.359375,52.625 L53.359375,64 L51.859375,64 L51.859375,55.234375 L46.2578125,64 L44.75,64 L44.75,52.625 L46.2578125,52.625 L46.2578125,61.390625 L51.859375,52.625 Z M63.265625,52.625 L64.765625,52.625 L64.765625,64 L63.265625,64 L63.265625,55.234375 L57.6640625,64 L56.15625,64 L56.15625,52.625 L57.6640625,52.625 L57.6640625,61.390625 L63.265625,52.625 Z"
          id="ВСЕВАКАНСИИ" fill="#92CFFF" fill-rule="nonzero"
          transform="translate(6.542969, 58.312500) rotate(-90.000000) translate(-6.542969, -58.312500) "></path>
</svg>