<svg viewBox="0 0 13 93">
    <g transform="translate(-1176.000000, -298.000000)" fill="#92CFFF" fill-rule="nonzero">
        <path d="M1136.32031,350 L1136.32031,338.625 L1140.03906,338.625 C1141.27344,338.625 1142.20182,338.880206 1142.82422,339.390625 C1143.44662,339.901044 1143.75781,340.656245 1143.75781,341.65625 C1143.75781,342.187503 1143.60677,342.65755 1143.30469,343.066406 C1143.0026,343.475262 1142.59115,343.791666 1142.07031,344.015625 C1142.6849,344.187501 1143.17057,344.514321 1143.52734,344.996094 C1143.88412,345.477867 1144.0625,346.05208 1144.0625,346.71875 C1144.0625,347.739588 1143.73177,348.541664 1143.07031,349.125 C1142.40885,349.708336 1141.47396,350 1140.26562,350 L1136.32031,350 Z M1137.82031,344.679688 L1137.82031,348.773438 L1140.29688,348.773438 C1140.9948,348.773438 1141.54557,348.59245 1141.94922,348.230469 C1142.35287,347.868488 1142.55469,347.369795 1142.55469,346.734375 C1142.55469,345.364576 1141.8099,344.679688 1140.32031,344.679688 L1137.82031,344.679688 Z M1137.82031,343.476562 L1140.08594,343.476562 C1140.74219,343.476562 1141.26693,343.312502 1141.66016,342.984375 C1142.05339,342.656248 1142.25,342.21094 1142.25,341.648438 C1142.25,341.023434 1142.06771,340.569012 1141.70312,340.285156 C1141.33854,340.001301 1140.78386,339.859375 1140.03906,339.859375 L1137.82031,339.859375 L1137.82031,343.476562 Z M1154.64844,346.390625 C1154.50781,347.593756 1154.06381,348.522132 1153.31641,349.175781 C1152.56901,349.82943 1151.57553,350.15625 1150.33594,350.15625 C1148.99218,350.15625 1147.91537,349.674484 1147.10547,348.710938 C1146.29557,347.747391 1145.89062,346.458341 1145.89062,344.84375 L1145.89062,343.75 C1145.89062,342.692703 1146.07943,341.763025 1146.45703,340.960938 C1146.83464,340.15885 1147.36979,339.542971 1148.0625,339.113281 C1148.75521,338.683592 1149.55729,338.46875 1150.46875,338.46875 C1151.67709,338.46875 1152.64583,338.805986 1153.375,339.480469 C1154.10417,340.154951 1154.52865,341.088536 1154.64844,342.28125 L1153.14062,342.28125 C1153.01042,341.374995 1152.72787,340.718752 1152.29297,340.3125 C1151.85807,339.906248 1151.25,339.703125 1150.46875,339.703125 C1149.51041,339.703125 1148.75912,340.057288 1148.21484,340.765625 C1147.67057,341.473962 1147.39844,342.481764 1147.39844,343.789062 L1147.39844,344.890625 C1147.39844,346.125006 1147.65625,347.106767 1148.17188,347.835938 C1148.6875,348.565108 1149.40885,348.929688 1150.33594,348.929688 C1151.16927,348.929688 1151.80859,348.740887 1152.25391,348.363281 C1152.69922,347.985675 1152.99479,347.32813 1153.14062,346.390625 L1154.64844,346.390625 Z M1163.125,344.742188 L1158.19531,344.742188 L1158.19531,348.773438 L1163.92188,348.773438 L1163.92188,350 L1156.69531,350 L1156.69531,338.625 L1163.84375,338.625 L1163.84375,339.859375 L1158.19531,339.859375 L1158.19531,343.515625 L1163.125,343.515625 L1163.125,344.742188 Z M1178.11719,346.390625 C1177.97656,347.593756 1177.53256,348.522132 1176.78516,349.175781 C1176.03776,349.82943 1175.04428,350.15625 1173.80469,350.15625 C1172.46093,350.15625 1171.38412,349.674484 1170.57422,348.710938 C1169.76432,347.747391 1169.35938,346.458341 1169.35938,344.84375 L1169.35938,343.75 C1169.35938,342.692703 1169.54818,341.763025 1169.92578,340.960938 C1170.30339,340.15885 1170.83854,339.542971 1171.53125,339.113281 C1172.22396,338.683592 1173.02604,338.46875 1173.9375,338.46875 C1175.14584,338.46875 1176.11458,338.805986 1176.84375,339.480469 C1177.57292,340.154951 1177.9974,341.088536 1178.11719,342.28125 L1176.60938,342.28125 C1176.47917,341.374995 1176.19662,340.718752 1175.76172,340.3125 C1175.32682,339.906248 1174.71875,339.703125 1173.9375,339.703125 C1172.97916,339.703125 1172.22787,340.057288 1171.68359,340.765625 C1171.13932,341.473962 1170.86719,342.481764 1170.86719,343.789062 L1170.86719,344.890625 C1170.86719,346.125006 1171.125,347.106767 1171.64062,347.835938 C1172.15625,348.565108 1172.8776,348.929688 1173.80469,348.929688 C1174.63802,348.929688 1175.27734,348.740887 1175.72266,348.363281 C1176.16797,347.985675 1176.46354,347.32813 1176.60938,346.390625 L1178.11719,346.390625 Z M1188.02344,339.859375 L1184.36719,339.859375 L1184.36719,350 L1182.875,350 L1182.875,339.859375 L1179.22656,339.859375 L1179.22656,338.625 L1188.02344,338.625 L1188.02344,339.859375 Z M1195.99219,347.03125 L1191.22656,347.03125 L1190.15625,350 L1188.60938,350 L1192.95312,338.625 L1194.26562,338.625 L1198.61719,350 L1197.07812,350 L1195.99219,347.03125 Z M1191.67969,345.796875 L1195.54688,345.796875 L1193.60938,340.476562 L1191.67969,345.796875 Z M1208.00781,339.859375 L1204.35156,339.859375 L1204.35156,350 L1202.85938,350 L1202.85938,339.859375 L1199.21094,339.859375 L1199.21094,338.625 L1208.00781,338.625 L1208.00781,339.859375 Z M1211.14844,343.265625 L1213.97656,343.265625 C1215.16407,343.28125 1216.09114,343.585935 1216.75781,344.179688 C1217.42448,344.77344 1217.75781,345.580724 1217.75781,346.601562 C1217.75781,347.627609 1217.42188,348.445309 1216.75,349.054688 C1216.07812,349.664066 1215.16146,349.979167 1214,350 L1209.64844,350 L1209.64844,338.625 L1211.14844,338.625 L1211.14844,343.265625 Z M1211.14844,344.5 L1211.14844,348.773438 L1213.89062,348.773438 C1214.63542,348.773438 1215.21484,348.575523 1215.62891,348.179688 C1216.04297,347.783852 1216.25,347.252608 1216.25,346.585938 C1216.25,345.945309 1216.05078,345.440106 1215.65234,345.070312 C1215.2539,344.700519 1214.6875,344.510417 1213.95312,344.5 L1211.14844,344.5 Z M1226.90625,338.625 L1228.40625,338.625 L1228.40625,350 L1226.90625,350 L1226.90625,341.234375 L1221.30469,350 L1219.79688,350 L1219.79688,338.625 L1221.30469,338.625 L1221.30469,347.390625 L1226.90625,338.625 Z" id="ВСЕСТАТЬИ" transform="translate(1182.363281, 344.312500) rotate(-90.000000) translate(-1182.363281, -344.312500) "></path>
    </g>
</svg>