<svg viewBox="0 0 22 17">
    <path d="M20.86 14.862H1.243a.901.901 0 0 0-.666.257.901.901 0 0 0-.258.666v.14c0 .036.007.075.021.118l.043.118a.753.753 0 0 0 .054.108l.065.107a.5.5 0 0 0 .075.097.901.901 0 0 0 .666.258h19.615c.272 0 .494-.09.666-.269a.938.938 0 0 0 .258-.677.901.901 0 0 0-.258-.666.948.948 0 0 0-.666-.257zM1.243 7.407a.904.904 0 0 0-.666.256.894.894 0 0 0-.258.662c0 .057.004.11.01.16a.79.79 0 0 0 .087.268c.021.043.046.085.075.128a.7.7 0 0 0 .086.107c.172.17.394.256.666.256h19.615a.904.904 0 0 0 .666-.256.894.894 0 0 0 .258-.663.894.894 0 0 0-.258-.662.904.904 0 0 0-.666-.256zm0-5.608h19.615c.272 0 .494-.09.666-.268a.938.938 0 0 0 .258-.677.901.901 0 0 0-.258-.666.901.901 0 0 0-.666-.258H1.244a.901.901 0 0 0-.666.258.901.901 0 0 0-.258.666c0 .1.007.19.021.268a.668.668 0 0 0 .086.226.901.901 0 0 0 .816.451z" />
</svg>