<svg viewBox="0 0 11 16">
    <path d="M5.499.45c1 0 1.932.253 2.793.76a5.676 5.676 0 0 1 1.976 1.976c.507.861.76 1.792.76 2.793 0 .773-.19 1.66-.57 2.66-.33.849-.785 1.767-1.368 2.755a36.344 36.344 0 0 1-1.653 2.451 29.59 29.59 0 0 1-1.368 1.748l-.57.665-.57-.665a29.59 29.59 0 0 1-1.368-1.748 36.344 36.344 0 0 1-1.653-2.451C1.325 10.406.869 9.488.54 8.639c-.38-1-.57-1.887-.57-2.66 0-1 .253-1.932.76-2.793A5.676 5.676 0 0 1 2.706 1.21 5.413 5.413 0 0 1 5.499.45zm3.144 6.302V5.196H6.272V2.825H4.716v2.371H2.345v1.556h2.371v2.371h1.556V6.752z" />
</svg>