<svg viewBox="0 0 15 15">
    <path d="M3.23 6.376a12.326 12.326 0 0 0 2.223 3.021c.9.9 1.906 1.64 3.021 2.223l1.748-1.748a.735.735 0 0 1 .38-.228.648.648 0 0 1 .437.038c.836.291 1.773.437 2.812.437a.75.75 0 0 1 .551.228.75.75 0 0 1 .228.551v2.793a.75.75 0 0 1-.228.551.75.75 0 0 1-.551.228c-1.824 0-3.572-.355-5.244-1.064a13.417 13.417 0 0 1-4.275-2.888 13.417 13.417 0 0 1-2.888-4.275A13.293 13.293 0 0 1 .38.999.75.75 0 0 1 .608.448.75.75 0 0 1 1.159.22h2.793a.75.75 0 0 1 .551.228.75.75 0 0 1 .228.551c0 1.039.146 1.976.437 2.812.038.14.044.285.019.437a.633.633 0 0 1-.209.38z" />
</svg>