<svg viewBox="0 0 14 14">
    <path d="M8.708 4.74l.944.944L7.94 7.396l1.712 1.712-.944.944L6.996 8.34l-1.712 1.712-.944-.944 1.712-1.712L4.34 5.684l.944-.944 1.712 1.712zm-1.712-4c1.216 0 2.341.304 3.376.912A6.308 6.308 0 0 1 12.74 4.02a6.546 6.546 0 0 1 .912 3.376 6.546 6.546 0 0 1-.912 3.376 6.308 6.308 0 0 1-2.368 2.368 6.546 6.546 0 0 1-3.376.912 6.546 6.546 0 0 1-3.376-.912 6.428 6.428 0 0 1-2.368-2.384 6.517 6.517 0 0 1-.912-3.36c0-1.205.304-2.325.912-3.36a6.55 6.55 0 0 1 2.384-2.384A6.517 6.517 0 0 1 6.996.74zm0 12c.96 0 1.856-.245 2.688-.736.81-.47 1.45-1.11 1.92-1.92.49-.832.736-1.728.736-2.688 0-.96-.245-1.856-.736-2.688a5.182 5.182 0 0 0-1.92-1.92 5.201 5.201 0 0 0-2.688-.736c-.96 0-1.856.245-2.688.736-.81.47-1.45 1.11-1.92 1.92a5.201 5.201 0 0 0-.736 2.688c0 .96.245 1.856.736 2.688.47.81 1.11 1.45 1.92 1.92.832.49 1.728.736 2.688.736z"/>
</svg>