<svg viewBox="0 0 19 14">
    <path d="M17.404 0c.43 0 .804.156 1.121.467.317.31.475.678.475 1.101v10.864c0 .423-.158.79-.475 1.101-.317.311-.69.467-1.121.467H1.596c-.43 0-.804-.156-1.121-.467A1.493 1.493 0 0 1 0 12.432V1.568C0 1.145.158.778.475.467.792.156 1.165 0 1.596 0zM6.346 2.333c-.418 0-.81.106-1.178.318a2.389 2.389 0 0 0-.874.858c-.215.361-.323.747-.323 1.158 0 .41.108.796.323 1.157.215.36.507.647.874.859.367.211.76.317 1.178.317.418 0 .81-.106 1.178-.317.367-.212.659-.498.874-.859.215-.36.323-.747.323-1.157 0-.411-.108-.797-.323-1.158a2.389 2.389 0 0 0-.874-.858 2.322 2.322 0 0 0-1.178-.318zm4.75 9.344v-.768c0-.487-.291-.93-.874-1.33-.494-.337-1.14-.605-1.938-.805-.71-.187-1.355-.28-1.938-.28s-1.229.093-1.938.28c-.798.2-1.444.468-1.938.805-.583.4-.874.843-.874 1.33v.768zM17.394 7v-.737h-6.298V7zm0-1.965v-.737h-6.298v.737zm0-1.965v-.737h-6.298v.737z" />
</svg>