<svg viewBox="0 0 17 17">
    <path d="M8.504.45c1.444 0 2.78.361 4.009 1.083a7.491 7.491 0 0 1 2.812 2.812 7.773 7.773 0 0 1 1.083 4.009c0 1.444-.361 2.78-1.083 4.009a7.491 7.491 0 0 1-2.812 2.812 7.773 7.773 0 0 1-4.009 1.083 7.773 7.773 0 0 1-4.009-1.083 7.633 7.633 0 0 1-2.812-2.831A7.739 7.739 0 0 1 .6 8.354c0-1.431.361-2.761 1.083-3.99a7.779 7.779 0 0 1 2.831-2.831A7.739 7.739 0 0 1 8.504.45zm0 2.375c-.418 0-.81.108-1.178.323a2.41 2.41 0 0 0-.874.874c-.215.367-.323.76-.323 1.178 0 .418.108.81.323 1.178.215.367.507.659.874.874.367.215.76.323 1.178.323.418 0 .81-.108 1.178-.323a2.41 2.41 0 0 0 .874-.874c.215-.367.323-.76.323-1.178 0-.418-.108-.81-.323-1.178a2.41 2.41 0 0 0-.874-.874 2.291 2.291 0 0 0-1.178-.323zm0 11.238c.963 0 1.868-.24 2.717-.72a5.67 5.67 0 0 0 2.033-1.84c-.013-.48-.31-.923-.893-1.327-.507-.342-1.153-.62-1.938-.835-.71-.19-1.352-.284-1.929-.284-.576 0-1.219.095-1.928.284-.785.215-1.425.493-1.919.835-.583.404-.88.847-.893 1.327a5.67 5.67 0 0 0 2.033 1.84c.861.48 1.767.72 2.717.72z" />
</svg>