<svg viewBox="0 0 79 83">
    <path d="M55.5 70.965h8.08" />
    <path d="M.795 39.975v0h13.962V66.764H.795v0" />
    <path d="M17.616 63.188H14.76" />
    <path d="M14.76 42.87v0h4.92c0-3.264 2.638-5.91 5.89-5.91h10.632c3.672 0 5.643.611 6.855 2.164" />
    <path d="M44.5 75.135v0l-.179-.195a2.813 2.813 0 0 1-.156 3.966 2.791 2.791 0 0 1-3.953-.156l-.417-.455v0" />
    <path d="M43.485 63.75v0l6.838 7.431c1.2 1.306 1.029 3.423-.381 4.73-1.41 1.308-3.527 1.31-4.73.007l-1.757-1.908v0" />
    <path d="M45.321 55.455v0L55.469 66.48c1.24 1.348 1.103 3.5-.31 4.807-1.41 1.309-3.558 1.275-4.798-.072L39.705 59.639v0" />
    <path d="M52.101 52.38v0l8.176 8.883c1.184 1.288 1.003 3.393-.407 4.7-1.413 1.307-3.516 1.322-4.703.034l-9.822-10.52v0" />
    <path d="M77.547 45.825v0H63.585V72.614h13.962v0" />
    <path d="M63.573 47.493v0h-4.922c0-4.627-3.734-8.373-8.344-8.373H39.739a3.07 3.07 0 0 0-2.176.903l-11.596 11.64a.408.408 0 0 0 0 .58 7.16 7.16 0 0 0 10.154 0l5.806-5.825v0l1.274 1.972a5.885 5.885 0 0 0 6.937 2.356l3.072-1.1v0" />
    <path d="M18.817 68.219l-1.105-.94a2.772 2.772 0 0 1-.318-3.896l3.177-3.757a2.747 2.747 0 0 1 3.881-.32l1.105.942a2.767 2.767 0 0 1 .318 3.894L22.698 67.9a2.746 2.746 0 0 1-3.88.32z" />
    <path d="M24.127 72.746l-1.105-.94a2.772 2.772 0 0 1-.318-3.896l5.764-6.815a2.746 2.746 0 0 1 3.88-.318l1.105.94a2.77 2.77 0 0 1 .319 3.894l-5.764 6.818a2.748 2.748 0 0 1-3.88.317z" />
    <path d="M29.422 77.26l-1.105-.94A2.77 2.77 0 0 1 28 72.427l6.765-8a2.747 2.747 0 0 1 3.881-.32l1.105.942c1.16.985 1.3 2.73.316 3.892l-6.763 8.003a2.748 2.748 0 0 1-3.88.317z" />
    <path d="M34.192 81.311l-.921-.782a2.309 2.309 0 0 1-.266-3.248l5.542-6.553a2.29 2.29 0 0 1 3.234-.267l.922.785a2.306 2.306 0 0 1 .265 3.245l-5.542 6.554a2.288 2.288 0 0 1-3.234.266z" />
    <path d="M44.074 6.894c0 3.367-2.593 6.098-5.793 6.098-3.198 0-5.791-2.73-5.791-6.098S35.083.795 38.281.795c3.2 0 5.793 2.731 5.793 6.099z" />
    <path d="M44.944 33.887V24.66" />
    <path d="M40.935 16.05v.307a.97.97 0 0 0 .966.969h3.741a3.325 3.325 0 0 1 3.319 3.33v13.233" />
    <path d="M31.82 31.73v-7.07" />
    <path d="M35.836 16.05v.307a.97.97 0 0 1-.966.969h-3.742a3.323 3.323 0 0 0-3.318 3.33v11.029" />
    <path d="M22.687 13.38c0 2.934-2.257 5.31-5.044 5.31-2.783 0-5.043-2.376-5.043-5.31 0-2.932 2.26-5.31 5.043-5.31 2.787 0 5.044 2.378 5.044 5.31z" />
    <path d="M23.45 31.908V29.04" />
    <path d="M19.95 21.547v.267c0 .465.377.844.841.844h3.98v0" />
    <path d="M12.034 34.71v-5.67" />
    <path d="M15.521 21.54v.267a.844.844 0 0 1-.84.844h-3.258a2.894 2.894 0 0 0-2.888 2.9v9.202" />
    <path d="M53.865 13.38c0 2.934 2.258 5.31 5.043 5.31 2.784 0 5.042-2.376 5.042-5.31 0-2.932-2.258-5.31-5.042-5.31-2.785 0-5.043 2.378-5.043 5.31z" />
    <path d="M53.104 34.113V29.04" />
    <path d="M56.601 21.547v.267a.844.844 0 0 1-.84.844H51.78v0" />
    <path d="M64.534 40.681V29.04" />
    <path d="M61.035 21.54v.267c0 .465.377.844.841.844h3.257a2.894 2.894 0 0 1 2.888 2.9v15.127" />
</svg>