<svg viewBox="0 0 83 92">
    <path d="M63.056 21.543c0 11.4-9.342 20.645-20.867 20.645S21.32 32.943 21.32 21.543 30.664.9 42.189.9s20.867 9.243 20.867 20.643z" />
    <path d="M17.964 79.048v0l.041-5.465c0-.552-.21-1.084-.586-1.49L1.988 55.406a2.182 2.182 0 0 1-.572-1.751l3.779-31.47a2.23 2.23 0 0 1 2.22-1.951c1.236 0 2.235.99 2.235 2.21l.63 24.347c0 .448.137.89.397 1.259l8.88 10.187v0l-7.875-15.61a2.966 2.966 0 0 1 1.047-3.835 3.043 3.043 0 0 1 3.97.583l16.214 19.172a8.363 8.363 0 0 1 1.63 4.954l-.052 15.546v0" />
    <path d="M10.475 27.42v0h1.584c1.608 0 2.914 1.294 2.914 2.885v7.935" />
    <path d="M65.462 79.107v0l-.005-5.524c0-.552.21-1.085.586-1.49l15.433-16.686c.44-.476.65-1.112.57-1.753l-3.778-31.47a2.227 2.227 0 0 0-2.22-1.949c-1.234 0-2.235.989-2.235 2.21l-.63 24.345c0 .45-.138.89-.398 1.26l-8.88 10.188v0l7.878-15.61a2.968 2.968 0 0 0-1.051-3.836 3.038 3.038 0 0 0-3.966.583L50.55 58.548a8.361 8.361 0 0 0-1.629 4.954l-.016 15.515v0" />
    <path d="M72.98 27.42v0h-1.584c-1.61 0-2.916 1.294-2.916 2.885v7.935" />
    <path d="M14.315 90.245v0V79.26v0H38.03v10.985" />
    <path d="M34.067 86.217V83.4" />
    <path d="M69.033 90.245v0V79.26v0H45.32v10.985" />
    <path d="M49.292 86.217V83.4" />
    <path d="M47.574 12.894c0 3.367-2.593 6.098-5.793 6.098-3.198 0-5.791-2.73-5.791-6.098s2.593-6.099 5.791-6.099c3.2 0 5.793 2.731 5.793 6.099z" />
    <path d="M48.444 41.254V30.66" />
    <path d="M44.435 22.05v.307a.97.97 0 0 0 .966.969h3.741a3.325 3.325 0 0 1 3.319 3.33v12.42" />
    <path d="M35.33 40.766V30.66" />
    <path d="M39.336 22.05v.307a.97.97 0 0 1-.966.969h-3.742a3.323 3.323 0 0 0-3.318 3.33v12.17" />
</svg>