<svg viewBox="0 0 94 87">
    <path d="M24.179 44.239H14.48" />
    <path d="M10.344 44.239H7.745" />
    <path d="M4.014 44.239H1.415" />
    <path d="M27.474 57.004H15.665" />
    <path d="M11.53 57.004h-2.6" />
    <path d="M27.576 31.489H15.77" />
    <path d="M11.634 31.489H9.035" />
    <path d="M81.08 53.556a29.336 29.336 0 0 0 1.506-9.31c0-16.103-12.949-29.156-28.923-29.156-10.066 0-18.93 5.183-24.111 13.046a29.19 29.19 0 0 0-4.812 16.11c0 16.104 12.949 29.157 28.923 29.157 2.389 0 4.714-.291 6.933-.844" />
    <path d="M78.513 44.239H74.84" />
    <path d="M28.805 44.239h3.671" />
    <path d="M53.654 19.185v3.7" />
    <path d="M53.654 69.298v-3.703" />
    <path d="M75.03 31.459l-3.16 1.89" />
    <path d="M32.285 57.035l3.16-1.893" />
    <path d="M40.971 22.695l1.875 3.185" />
    <path d="M66.125 22.575l-1.843 3.202" />
    <path d="M41.197 65.92l1.843-3.205" />
    <path d="M32.15 31.685l3.177 1.857" />
    <path d="M54.717 44.28c0 .754-.607 1.364-1.354 1.364-.746 0-1.353-.61-1.353-1.365a1.36 1.36 0 0 1 1.353-1.364 1.36 1.36 0 0 1 1.354 1.364z" />
    <path d="M74.235 44.284H54.71" />
    <path d="M48.9 8.968v0h-4.435v0V.93v0H60.62v8.038h-4.437v0" />
    <path d="M56.188 8.97v2.706h-7.283v0V8.97v0" />
    <path d="M72.15 15.698v0l-1.735-1.32v0l2.352-3.143v0l6.317 4.803v0l-2.352 3.143v0l-1.736-1.317v0" />
    <path d="M75 17.871v0l-.791 1.058v0l-2.849-2.166v0l.793-1.058v0" />
    <path d="M76.867 85.858c9 0 16.295-7.354 16.295-16.425 0-9.071-7.296-16.423-16.295-16.423-8.999 0-16.292 7.352-16.292 16.423a16.44 16.44 0 0 0 7.288 13.692 16.13 16.13 0 0 0 9.004 2.733z" />
    <path d="M84.107 64.5l-9.672 10.265" />
    <path d="M69.95 70.245l4.481 4.517" />
</svg>