<svg viewBox="0 0 73 73">
    <path d="M47.919 36.813c0 6.05-4.907 10.957-10.958 10.957s-10.956-4.907-10.956-10.958c0-6.05 4.905-10.957 10.956-10.957 6.051 0 10.957 4.907 10.957 10.957z" />
    <path d="M71.854 10.147a8.398 8.398 0 1 1-16.795-.001 8.398 8.398 0 0 1 16.795.001z" />
    <path d="M15.019 10.11a4.865 4.865 0 1 1-9.73 0 4.865 4.865 0 0 1 9.73 0z" />
    <path d="M13.429 36.72a2.63 2.63 0 1 1-5.26-.001 2.63 2.63 0 0 1 5.26 0z" />
    <path d="M36.825 13.399a2.63 2.63 0 1 1 0-5.26 2.63 2.63 0 0 1 0 5.26z" />
    <path d="M13.42 36.715h8.88" />
    <path d="M26.607 26.425L14.065 13.93" />
    <path d="M36.82 13.525v8.671" />
    <path d="M58.54 63.27a4.863 4.863 0 1 1 9.727 0 4.865 4.865 0 0 1-9.727 0z" />
    <path d="M60.385 36.614a2.63 2.63 0 1 1 5.26.002 2.63 2.63 0 0 1-5.26-.002z" />
    <path d="M36.75 59.995a2.63 2.63 0 1 1-.002 5.26 2.63 2.63 0 0 1 .002-5.26z" />
    <path d="M60.255 36.67h-8.99" />
    <path d="M46.96 46.96L59.5 59.453" />
    <path d="M36.745 59.904V51.19" />
    <path d="M56.43 15.94l-9.995 9.908" />
    <path d="M1.75 63.112a8.397 8.397 0 1 1 16.793 0 8.397 8.397 0 0 1-16.793 0z" />
    <path d="M17.17 57.316l9.995-9.906" />
</svg>