<svg viewBox="0 0 19 14">
    <path d="M18.81 3.02S19 4.631 19 6.24v1.51c0 1.612-.19 3.222-.19 3.222s-.186 1.372-.755 1.976c-.723.793-1.533.797-1.904.843C13.492 13.994 9.5 14 9.5 14s-4.94-.047-6.46-.2c-.423-.083-1.372-.058-2.095-.851-.57-.604-.755-1.976-.755-1.976S0 9.363 0 7.752v-1.51C0 4.63.19 3.02.19 3.02s.185-1.372.755-1.976C1.668.251 2.477.248 2.849.202 5.508 0 9.496 0 9.496 0h.008s3.988 0 6.647.202c.371.046 1.181.05 1.904.842.57.604.755 1.976.755 1.976zm-6.139 3.775L7.538 3.989v5.593z" />
</svg>