<svg xmlns="http://www.w3.org/2000/svg" width="1574" height="1574" viewBox="0 0 1574 1574"><g><g><g><path fill="none" stroke="#ffc107" stroke-miterlimit="50" stroke-width="40" d="M787 951c90.575 0 164-73.425 164-164s-73.425-164-164-164-164 73.425-164 164 73.425 164 164 164z"/></g><g opacity=".4"><g opacity=".4"><path fill="none" stroke="#fff" stroke-miterlimit="50" d="M930.214 786.532c0 79.354-64.329 143.682-143.682 143.682S642.85 865.886 642.85 786.532c0-79.354 64.329-143.682 143.682-143.682s143.682 64.328 143.682 143.682z"/></g><g opacity=".4"><path fill="none" stroke="#fff" stroke-miterlimit="50" d="M949.674 786.527c0 90.104-73.043 163.146-163.147 163.146-90.104 0-163.147-73.042-163.147-163.146 0-90.104 73.043-163.147 163.147-163.147 90.104 0 163.147 73.043 163.147 163.147z"/></g><g opacity=".4"><path fill="none" stroke="#fff" stroke-miterlimit="50" d="M969.144 786.532c0 100.854-81.758 182.612-182.612 182.612S603.92 887.386 603.92 786.532 685.678 603.92 786.532 603.92s182.612 81.758 182.612 182.612z"/></g><g opacity=".4"><path fill="none" stroke="#fff" stroke-miterlimit="50" d="M988.604 786.527c0 111.604-90.473 202.077-202.077 202.077S584.45 898.131 584.45 786.527 674.923 584.45 786.527 584.45s202.077 90.473 202.077 202.077z"/></g><g opacity=".4"><path fill="none" stroke="#fff" stroke-miterlimit="50" d="M1008.075 786.532c0 122.354-99.188 221.542-221.542 221.542-122.355 0-221.543-99.188-221.543-221.542S664.178 564.99 786.533 564.99c122.354 0 221.542 99.188 221.542 221.542z"/></g><g opacity=".4"><path fill="none" stroke="#fff" stroke-miterlimit="50" d="M1027.545 786.533c0 133.107-107.905 241.012-241.012 241.012-133.108 0-241.013-107.905-241.013-241.012S653.425 545.52 786.533 545.52c133.107 0 241.012 107.906 241.012 241.013z"/></g><g opacity=".4"><path fill="none" stroke="#fff" stroke-miterlimit="50" d="M1047.005 786.533c0 143.854-116.618 260.473-260.472 260.473-143.855 0-260.473-116.619-260.473-260.473 0-143.855 116.618-260.473 260.473-260.473 143.854 0 260.472 116.618 260.472 260.473z"/></g><g opacity=".4"><path fill="none" stroke="#fff" stroke-miterlimit="50" d="M1066.465 786.527c0 154.605-125.332 279.938-279.937 279.938-154.605 0-279.938-125.333-279.938-279.938S631.923 506.59 786.528 506.59s279.937 125.332 279.937 279.937z"/></g><g opacity=".4"><path fill="none" stroke="#fff" stroke-miterlimit="50" d="M1085.945 786.532c0 165.355-134.05 299.402-299.408 299.402S487.13 951.887 487.13 786.532 621.18 487.13 786.537 487.13c165.359 0 299.408 134.047 299.408 299.402z"/></g><g opacity=".4"><path fill="none" stroke="#fff" stroke-miterlimit="50" d="M1105.395 786.528c0 176.105-142.762 318.867-318.867 318.867-176.106 0-318.868-142.762-318.868-318.867 0-176.105 142.762-318.868 318.868-318.868 176.105 0 318.867 142.763 318.867 318.868z"/></g><g opacity=".4"><path fill="none" stroke="#fff" stroke-miterlimit="50" d="M1124.866 786.533c0 186.855-151.477 338.333-338.333 338.333-186.856 0-338.333-151.478-338.333-338.333 0-186.856 151.477-338.333 338.333-338.333 186.856 0 338.333 151.477 338.333 338.333z"/></g><g opacity=".4"><path fill="none" stroke="#fff" stroke-miterlimit="50" d="M1144.325 786.528c0 197.606-160.191 357.798-357.798 357.798-197.606 0-357.797-160.192-357.797-357.798S588.921 428.73 786.527 428.73c197.607 0 357.798 160.192 357.798 357.798z"/></g><g opacity=".4"><path fill="none" stroke="#fff" stroke-miterlimit="50" d="M1163.796 786.533c0 208.356-168.907 377.263-377.263 377.263-208.357 0-377.263-168.907-377.263-377.263 0-208.356 168.906-377.263 377.263-377.263 208.356 0 377.263 168.907 377.263 377.263z"/></g><g opacity=".4"><path fill="none" stroke="#fff" stroke-miterlimit="50" d="M1183.256 786.528c0 219.106-177.621 396.728-396.728 396.728S389.8 1005.634 389.8 786.528 567.421 389.8 786.528 389.8s396.728 177.622 396.728 396.728z"/></g><g opacity=".4"><path fill="none" stroke="#fff" stroke-miterlimit="50" d="M1202.726 786.533c0 229.857-186.336 416.193-416.193 416.193-229.857 0-416.193-186.336-416.193-416.193 0-229.857 186.336-416.193 416.193-416.193 229.857 0 416.193 186.336 416.193 416.193z"/></g><g opacity=".4"><path fill="none" stroke="#fff" stroke-miterlimit="50" d="M1222.186 786.528c0 240.607-195.051 435.658-435.658 435.658-240.607 0-435.658-195.051-435.658-435.658 0-240.607 195.051-435.658 435.658-435.658 240.607 0 435.658 195.051 435.658 435.658z"/></g><g opacity=".4"><path fill="none" stroke="#fff" stroke-miterlimit="50" d="M1241.657 786.533c0 251.357-203.766 455.123-455.123 455.123-251.358 0-455.124-203.766-455.124-455.123S535.176 331.41 786.534 331.41c251.357 0 455.123 203.766 455.123 455.123z"/></g><g opacity=".4"><path fill="none" stroke="#fff" stroke-miterlimit="50" d="M1261.117 786.528c0 262.107-212.48 474.588-474.588 474.588-262.108 0-474.589-212.481-474.589-474.588 0-262.108 212.481-474.588 474.589-474.588s474.588 212.48 474.588 474.588z"/></g><g opacity=".4"><path fill="none" stroke="#fff" stroke-miterlimit="50" d="M1280.586 786.534c0 272.858-221.195 494.053-494.053 494.053S292.48 1059.392 292.48 786.534 513.675 292.48 786.533 292.48s494.053 221.196 494.053 494.054z"/></g><g opacity=".4"><path fill="none" stroke="#fff" stroke-miterlimit="50" d="M1300.047 786.528c0 283.608-229.91 513.519-513.518 513.519-283.609 0-513.519-229.911-513.519-513.519S502.92 273.01 786.529 273.01c283.608 0 513.518 229.91 513.518 513.518z"/></g><g opacity=".4"><path fill="none" stroke="#fff" stroke-miterlimit="50" d="M1319.517 786.533c0 294.358-238.625 532.983-532.983 532.983-294.359 0-532.984-238.625-532.984-532.983 0-294.358 238.625-532.983 532.984-532.983 294.358 0 532.983 238.625 532.983 532.983z"/></g><g opacity=".4"><path fill="none" stroke="#fff" stroke-miterlimit="50" d="M1338.977 786.528c0 305.108-247.34 552.448-552.448 552.448-305.11 0-552.449-247.34-552.449-552.448 0-305.109 247.339-552.448 552.449-552.448 305.108 0 552.448 247.339 552.448 552.448z"/></g><g opacity=".4"><path fill="none" stroke="#fff" stroke-miterlimit="50" d="M1358.447 786.534c0 315.859-256.054 571.913-571.913 571.913-315.86 0-571.914-256.054-571.914-571.913 0-315.859 256.054-571.914 571.914-571.914 315.859 0 571.913 256.055 571.913 571.914z"/></g><g opacity=".4"><path fill="none" stroke="#fff" stroke-miterlimit="50" d="M1377.908 786.529c0 326.609-264.77 591.379-591.379 591.379-326.609 0-591.379-264.77-591.379-591.379 0-326.609 264.77-591.379 591.379-591.379 326.609 0 591.379 264.77 591.379 591.379z"/></g><g opacity=".4"><path fill="none" stroke="#fff" stroke-miterlimit="50" d="M1397.368 786.534c0 337.359-273.484 610.844-610.843 610.844-337.36 0-610.845-273.485-610.845-610.844 0-337.359 273.485-610.844 610.845-610.844 337.359 0 610.843 273.485 610.843 610.844z"/></g><g opacity=".4"><path fill="none" stroke="#fff" stroke-miterlimit="50" d="M1416.838 786.529c0 348.109-282.199 630.309-630.309 630.309-348.11 0-630.309-282.2-630.309-630.309 0-348.11 282.199-630.309 630.309-630.309 348.11 0 630.309 282.199 630.309 630.309z"/></g><g opacity=".4"><path fill="none" stroke="#fff" stroke-miterlimit="50" d="M1436.308 786.534c0 358.86-290.914 649.773-649.774 649.773S136.76 1145.394 136.76 786.534 427.674 136.76 786.534 136.76s649.774 290.914 649.774 649.774z"/></g><g opacity=".4"><path fill="none" stroke="#fff" stroke-miterlimit="50" d="M1455.768 786.529c0 369.61-299.628 669.239-669.239 669.239-369.611 0-669.239-299.629-669.239-669.239S416.918 117.29 786.529 117.29c369.611 0 669.239 299.629 669.239 669.239z"/></g><g opacity=".4"><path fill="none" stroke="#fff" stroke-miterlimit="50" d="M1475.238 786.534c0 380.36-308.343 688.704-688.704 688.704-380.361 0-688.704-308.344-688.704-688.704 0-380.361 308.343-688.704 688.704-688.704 380.361 0 688.704 308.343 688.704 688.704z"/></g><g opacity=".4"><path fill="none" stroke="#fff" stroke-miterlimit="50" d="M1494.698 786.529c0 391.111-317.058 708.169-708.169 708.169S78.36 1177.64 78.36 786.529 395.418 78.36 786.529 78.36s708.169 317.058 708.169 708.169z"/></g><g opacity=".4"><path fill="none" stroke="#fff" stroke-miterlimit="50" d="M1514.168 786.535c0 401.861-325.773 727.634-727.634 727.634S58.9 1188.396 58.9 786.535 384.673 58.9 786.534 58.9s727.634 325.774 727.634 727.635z"/></g><g opacity=".4"><path fill="none" stroke="#fff" stroke-miterlimit="50" d="M1533.629 786.53c0 412.611-334.488 747.1-747.099 747.1-412.612 0-747.1-334.489-747.1-747.1 0-412.611 334.488-747.1 747.1-747.1 412.611 0 747.099 334.489 747.099 747.1z"/></g><g opacity=".4"><path fill="none" stroke="#fff" stroke-miterlimit="50" d="M1553.089 786.534c0 423.361-343.203 766.564-766.564 766.564-423.362 0-766.565-343.203-766.565-766.564 0-423.362 343.203-766.564 766.565-766.564 423.361 0 766.564 343.202 766.564 766.564z"/></g><g opacity=".4"><path fill="none" stroke="#fff" stroke-miterlimit="50" d="M1572.559 786.529c0 434.112-351.917 786.029-786.029 786.029C352.417 1572.558.5 1220.641.5 786.529S352.417.5 786.53.5c434.112 0 786.029 351.917 786.029 786.029z"/></g></g></g></g></svg>