<?xml version="1.0" encoding="UTF-8"?>
<svg width="2915px" height="2924px" viewBox="0 0 2915 2924" version="1.1" xmlns="http://www.w3.org/2000/svg" xmlns:xlink="http://www.w3.org/1999/xlink">
    <!-- Generator: Sketch 55.2 (78181) - https://sketchapp.com -->
    <title>04</title>
    <desc>Created with Sketch.</desc>
    <defs>
        <linearGradient x1="77.9624767%" y1="51.5997561%" x2="18.3151445%" y2="51.5997561%" id="linearGradient-1">
            <stop stop-color="#0D47A1" offset="0%"></stop>
            <stop stop-color="#1976D2" offset="51.1357478%"></stop>
            <stop stop-color="#0D47A1" offset="100%"></stop>
        </linearGradient>
        <path d="M1209.56023,2417.74236 C1046.4473,2417.74236 888.147839,2385.76725 739.060121,2322.70503 C595.119552,2261.82055 465.874045,2174.68469 354.913447,2063.71784 C243.951848,1952.75149 156.820512,1823.49928 95.9396842,1679.55075 C32.8807354,1530.4558 0.907282478,1372.14814 0.907282478,1209.02625 C0.907282478,1045.90536 32.8807354,887.598693 95.9396842,738.502246 C156.820512,594.555215 243.951848,465.303007 354.913447,354.335656 C465.874045,243.368305 595.119552,156.232952 739.060121,95.348467 C888.147839,32.2862489 1046.4473,0.311138351 1209.56023,0.311138351 C1372.67317,0.311138351 1530.97262,32.2862489 1680.06034,95.348467 C1824.00091,156.232952 1953.24642,243.368305 2064.20651,354.335656 C2175.16961,465.303007 2262.29945,594.555215 2323.18228,738.502246 C2386.23973,887.598693 2418.21468,1045.90536 2418.21468,1209.02625 C2418.21468,1372.14814 2386.23973,1530.4558 2323.18228,1679.55075 C2262.29945,1823.49928 2175.16961,1952.75149 2064.20651,2063.71784 C1953.24642,2174.68469 1824.00091,2261.82055 1680.06034,2322.70503 C1530.97262,2385.76725 1372.67317,2417.74236 1209.56023,2417.74236" id="path-2"></path>
        <filter x="-3.8%" y="-3.7%" width="107.5%" height="107.5%" filterUnits="objectBoundingBox" id="filter-3">
            <feOffset dx="0" dy="2" in="SourceAlpha" result="shadowOffsetOuter1"></feOffset>
            <feGaussianBlur stdDeviation="30" in="shadowOffsetOuter1" result="shadowBlurOuter1"></feGaussianBlur>
            <feColorMatrix values="0 0 0 0 0   0 0 0 0 0   0 0 0 0 0  0 0 0 0.15 0" type="matrix" in="shadowBlurOuter1" result="shadowMatrixOuter1"></feColorMatrix>
            <feOffset dx="0" dy="2" in="SourceAlpha" result="shadowOffsetOuter2"></feOffset>
            <feGaussianBlur stdDeviation="4" in="shadowOffsetOuter2" result="shadowBlurOuter2"></feGaussianBlur>
            <feColorMatrix values="0 0 0 0 0   0 0 0 0 0   0 0 0 0 0  0 0 0 0.11 0" type="matrix" in="shadowBlurOuter2" result="shadowMatrixOuter2"></feColorMatrix>
            <feMerge>
                <feMergeNode in="shadowMatrixOuter1"></feMergeNode>
                <feMergeNode in="shadowMatrixOuter2"></feMergeNode>
            </feMerge>
        </filter>
        <filter x="-2.6%" y="-2.5%" width="105.1%" height="105.1%" filterUnits="objectBoundingBox" id="filter-4">
            <feGaussianBlur stdDeviation="2" in="SourceAlpha" result="shadowBlurInner1"></feGaussianBlur>
            <feOffset dx="0" dy="0" in="shadowBlurInner1" result="shadowOffsetInner1"></feOffset>
            <feComposite in="shadowOffsetInner1" in2="SourceAlpha" operator="arithmetic" k2="-1" k3="1" result="shadowInnerInner1"></feComposite>
            <feColorMatrix values="0 0 0 0 1   0 0 0 0 1   0 0 0 0 1  0 0 0 0.24 0" type="matrix" in="shadowInnerInner1"></feColorMatrix>
        </filter>
    </defs>
    <g id="04" stroke="none" stroke-width="1" fill="none" fill-rule="evenodd">
        <g id="Blue-Circles-04" transform="translate(296.000000, 445.000000)">
            <g id="Fill-4">
                <use fill="black" fill-opacity="1" filter="url(#filter-3)" xlink:href="#path-2"></use>
                <use fill="url(#linearGradient-1)" fill-rule="evenodd" xlink:href="#path-2"></use>
                <use fill="black" fill-opacity="1" filter="url(#filter-4)" xlink:href="#path-2"></use>
            </g>
        </g>
    </g>
</svg>