<svg xmlns="http://www.w3.org/2000/svg" width="427" height="427" viewBox="0 0 427 427"><g><g><path fill="#ffc107" d="M213.5 427c-57.028 0-110.642-22.208-150.967-62.533C22.208 324.143 0 270.528 0 213.5c0-57.028 22.208-110.643 62.533-150.967C102.858 22.208 156.472 0 213.5 0c57.028 0 110.643 22.208 150.967 62.533C404.792 102.857 427 156.472 427 213.5c0 57.028-22.208 110.643-62.533 150.967C324.143 404.792 270.528 427 213.5 427zm0-383.576c-93.78 0-170.076 76.295-170.076 170.076 0 93.78 76.295 170.076 170.076 170.076 93.78 0 170.076-76.295 170.076-170.076 0-93.78-76.295-170.076-170.076-170.076z"/></g></g></svg>