<svg xmlns="http://www.w3.org/2000/svg" width="219" height="76" viewBox="0 0 219 76"><defs><clipPath id="as5da"><path d="M198.644 41.502h20.344v25.446h-20.344z"/></clipPath><clipPath id="as5db"><path d="M.272 13.847h14.7v20.951H.272z"/></clipPath><clipPath id="as5dc"><path d="M13.404 60.828h20.5V75.85h-20.5z"/></clipPath><clipPath id="as5dd"><path d="M32.812.278h8.716V38.14h-8.716z"/></clipPath></defs><g><g><g><path fill="#fff" d="M95.653 34.861V15.138h-6.98V9.415h20.344v5.723h-6.943V34.86z"/></g><g><path fill="#fff" d="M112.08 34.861h6.42V9.415h-6.42z"/></g><g><path fill="#fff" d="M144.815 34.861V18.304l-6.309 16.557h-2.837l-6.271-16.557v16.557h-6.42V9.415h8.921l5.189 13.81 5.225-13.81h8.922v25.446z"/></g><g><path fill="#fff" d="M155.716 34.861V9.415h18.253v5.723h-11.833v3.967h11.572v5.723h-11.572v4.31h11.833v5.723z"/></g><g><path fill="#ffc107" d="M95.653 66.948V47.225h-6.98v-5.723h20.344v5.723h-6.943v19.723z"/></g><g><g><path fill="#ffc107" d="M109.988 54.246c0-7.744 5.71-13.161 13.326-13.161 7.614 0 13.288 5.417 13.288 13.161 0 7.745-5.674 13.162-13.288 13.162-7.615 0-13.326-5.417-13.326-13.162m20.082 0c0-4.158-2.65-7.363-6.756-7.363-4.144 0-6.794 3.205-6.794 7.363 0 4.12 2.65 7.363 6.794 7.363 4.106 0 6.756-3.242 6.756-7.363"/></g><g><path fill="#fff" d="M166.317 66.948l-1.232-3.662h-9.817l-1.232 3.662h-7.279l9.37-25.446h8.062l9.407 25.446zm-6.16-18.96l-3.172 9.572h6.346z"/></g><g><path fill="#fff" d="M172.964 54.246c0-7.858 5.823-13.161 13.475-13.161 6.01 0 9.22 3.471 10.863 6.828l-5.525 2.671c-.821-2.022-2.95-3.7-5.338-3.7-4.069 0-6.943 3.204-6.943 7.362 0 4.159 2.874 7.363 6.943 7.363 2.389 0 4.517-1.678 5.338-3.7l5.525 2.67c-1.606 3.281-4.853 6.83-10.863 6.83-7.652 0-13.475-5.342-13.475-13.163"/></g><g><g/><g clip-path="url(#as5da)"><path fill="#fff" d="M205.625 66.948V47.225h-6.98v-5.723h20.343v5.723h-6.943v19.723z"/></g></g><g><g/><g clip-path="url(#as5db)"><path fill="#fff" d="M9.033 34.798a29.156 29.156 0 0 1 5.939-14.623L8.78 13.847A38.131 38.131 0 0 0 .272 34.798z"/></g></g><g><path fill="#fff" d="M14.972 56.103a29.156 29.156 0 0 1-5.94-14.623H.272A38.131 38.131 0 0 0 8.78 62.43z"/></g><g><path fill="#ffc107" d="M19.595 15.452c4.028-3.267 8.943-5.437 14.309-6.07V.429c-7.764.697-14.847 3.85-20.5 8.695z"/></g><g><path fill="#ffc107" d="M40.439.429v8.953c5.366.633 10.28 2.803 14.308 6.07l6.191-6.328C55.285 4.28 48.202 1.126 40.438.43"/></g><g><g/><g clip-path="url(#as5dc)"><path fill="#fff" d="M33.904 66.898c-5.366-.633-10.28-2.804-14.309-6.07l-6.19 6.327C19.056 72 26.14 75.154 33.903 75.851z"/></g></g><g><path fill="#fff" d="M59.37 20.175a29.156 29.156 0 0 1 5.939 14.623h8.76a38.131 38.131 0 0 0-8.508-20.951z"/></g><g><path fill="#fff" d="M54.747 60.828c-4.028 3.266-8.942 5.437-14.308 6.07v8.953c7.763-.697 14.846-3.85 20.5-8.696z"/></g><g><path fill="#fff" d="M65.309 41.48a29.156 29.156 0 0 1-5.94 14.623l6.192 6.328a38.131 38.131 0 0 0 8.508-20.951z"/></g><g><path fill="#ffc107" d="M45.886 38.14c0-4.92-3.902-8.91-8.716-8.91-4.814 0-8.716 3.99-8.716 8.91s3.902 8.908 8.716 8.908c4.814 0 8.716-3.989 8.716-8.909"/></g><g><g/><g clip-path="url(#as5dd)"><path fill="#ffc107" d="M37.17.278c-1.465 0-2.92.088-4.358.261v37.6h8.716V.54a36.511 36.511 0 0 0-4.358-.26"/></g></g></g></g></g></svg>