<svg width="76px" height="96px" viewBox="0 0 76 96" version="1.1" xmlns="http://www.w3.org/2000/svg" xmlns:xlink="http://www.w3.org/1999/xlink">
    <defs>
        <polygon id="path-1" points="0 0.0666 12.81664 0.0666 12.81664 18.12852 0 18.12852"></polygon>
        <polygon id="path-3" points="0.04904375 0.008448 17.9228188 0.008448 17.9228188 12.96 0.04904375 12.96"></polygon>
        <polygon id="path-5" points="0.11031875 0.12864 7.71031875 0.12864 7.71031875 32.76852 0.11031875 32.76852"></polygon>
    </defs>
    <g id="Design" stroke="none" stroke-width="1" fill="none" fill-rule="evenodd">
        <g id="08-Contacts-1440" transform="translate(-912.000000, -503.000000)">
            <g id="Icons-/-Logo-v01-Copy-1" transform="translate(912.000000, 503.000000)">
                <path d="M47.9983808,75.4569092 L38.1856647,95.8711168 L28.4279844,75.5714048 C12.0749513,71.2832944 0,56.2665121 0,38.4 C0,17.1924 17.0133125,0 38,0 C58.9866875,0 76,17.1924 76,38.4 C76,56.1108784 64.1345002,71.0214583 47.9983864,75.4569076 Z" id="Combined-Shape" fill="#1976D2"></path>
                <g id="Group-39" stroke-width="1" transform="translate(5.937500, 5.520000)">
                    <g id="Group-38" transform="translate(0.000000, 0.111360)">
                        <g id="Group-17" transform="translate(0.000000, 11.760000)">
                            <mask id="mask-2" fill="white">
                                <use xlink:href="#path-1"></use>
                            </mask>
                            <g id="Clip-16"></g>
                            <path d="M7.63819,18.12852 C8.178265,13.40052 10.0300525,9.07068 12.81664,5.52156 L7.4185025,0.0666 C3.28529,5.04732 0.5946525,11.28828 -4.75e-05,18.12852 L7.63819,18.12852 Z" id="Fill-15" fill="#FFFFFF" mask="url(#mask-2)"></path>
                        </g>
                        <path d="M12.8165688,48.255552 C10.0299812,44.706432 8.17819375,40.376592 7.63811875,35.648592 L0.00011875,35.648592 C0.59481875,42.488832 3.28521875,48.729792 7.41843125,53.710512 L12.8165688,48.255552 Z" id="Fill-18" fill="#FFFFFF"></path>
                        <path d="M16.84711,13.20852 C20.35926,10.3926 24.6439975,8.52132 29.3227475,7.97556 L29.3227475,0.25716 C22.55376,0.85788 16.37781,3.57684 11.4489725,7.75356 L16.84711,13.20852 Z" id="Fill-20" fill="#FFC107"></path>
                        <path d="M35.0228187,0.257088 L35.0228187,7.975728 C39.7015687,8.521488 43.9863062,10.392528 47.4984562,13.208448 L52.8965937,7.753488 C47.9677562,3.577008 41.7918062,0.857808 35.0228187,0.257088" id="Fill-22" fill="#FFC107"></path>
                        <g id="Group-26" transform="translate(11.400000, 52.320000)">
                            <mask id="mask-4" fill="white">
                                <use xlink:href="#path-3"></use>
                            </mask>
                            <g id="Clip-25"></g>
                            <path d="M17.9228188,5.241408 C13.2440687,4.695648 8.95933125,2.824608 5.44718125,0.008448 L0.04904375,5.463408 C4.97788125,9.640128 11.1538312,12.359088 17.9228188,12.960048 L17.9228188,5.241408 Z" id="Fill-24" fill="#FFFFFF" mask="url(#mask-4)"></path>
                        </g>
                        <path d="M51.5290687,17.281488 C54.3156562,20.830608 56.1674437,25.160448 56.7075187,29.888448 L64.3455187,29.888448 C63.7508188,23.048208 61.0604187,16.807248 56.9272062,11.826528 L51.5290687,17.281488 Z" id="Fill-27" fill="#FFFFFF"></path>
                        <path d="M47.4985275,52.32852 C43.9863775,55.14444 39.70164,57.01572 35.02289,57.56148 L35.02289,65.27988 C41.7918775,64.67916 47.9678275,61.9602 52.896665,57.78348 L47.4985275,52.32852 Z" id="Fill-29" fill="#FFFFFF"></path>
                        <path d="M56.7074475,35.64852 C56.1673725,40.37652 54.315585,44.70636 51.5289975,48.25548 L56.927135,53.71044 C61.0603475,48.72972 63.750985,42.48876 64.345685,35.64852 L56.7074475,35.64852 Z" id="Fill-31" fill="#FFFFFF"></path>
                        <path d="M39.7728187,32.76852 C39.7728187,28.527 36.3701562,25.08852 32.1728187,25.08852 C27.9754812,25.08852 24.5728187,28.527 24.5728187,32.76852 C24.5728187,37.01004 27.9754812,40.44852 32.1728187,40.44852 C36.3701562,40.44852 39.7728187,37.01004 39.7728187,32.76852" id="Fill-33" fill="#FFC107"></path>
                        <g id="Group-37" transform="translate(28.262500, 0.000000)">
                            <mask id="mask-6" fill="white">
                                <use xlink:href="#path-5"></use>
                            </mask>
                            <g id="Clip-36"></g>
                            <path d="M3.91031875,0.12852 C2.63280625,0.12852 1.36431875,0.20412 0.11031875,0.35316 L0.11031875,32.76852 L3.91031875,32.76852 L7.71031875,32.76852 L7.71031875,0.35316 C6.45631875,0.20412 5.18783125,0.12852 3.91031875,0.12852" id="Fill-35" fill="#FFC107" mask="url(#mask-6)"></path>
                        </g>
                    </g>
                </g>
            </g>
        </g>
    </g>
</svg>