<svg xmlns="http://www.w3.org/2000/svg" width="76" height="96" viewBox="0 0 76 96"><defs><clipPath id="zg9ja"><path d="M5.938 17.458h12.816V35.52H5.937z"/></clipPath><clipPath id="zg9jb"><path d="M17.387 57.96h17.874v12.952H17.387z"/></clipPath><clipPath id="zg9jc"><path d="M34.31 5.76h7.6V38.4h-7.6z"/></clipPath></defs><g><g><g><path fill="#1976d2" d="M76 38.4C76 17.192 58.987 0 38 0S0 17.192 0 38.4s17.013 38.4 38 38.4 38-17.192 38-38.4"/></g><g transform="rotate(-45 38 85)"><path fill="#1976d2" d="M34.687 68.14L49.55 83.162l-22.733 7.952z"/></g><g><g><g><g/><g clip-path="url(#zg9ja)"><path fill="#fff" d="M13.576 35.52a24.982 24.982 0 0 1 5.178-12.607l-5.398-5.455A32.675 32.675 0 0 0 5.938 35.52z"/></g></g><g><path fill="#fff" d="M18.754 53.887a24.982 24.982 0 0 1-5.179-12.607H5.939a32.674 32.674 0 0 0 7.418 18.062z"/></g><g><path fill="#ffc107" d="M22.786 18.841a24.45 24.45 0 0 1 12.475-5.233V5.89c-6.769.6-12.945 3.32-17.874 7.496z"/></g><g><path fill="#ffc107" d="M40.96 5.89v7.718a24.449 24.449 0 0 1 12.475 5.233l5.398-5.455C53.904 9.21 47.728 6.49 40.959 5.89"/></g><g><g/><g clip-path="url(#zg9jb)"><path fill="#fff" d="M35.261 63.193a24.447 24.447 0 0 1-12.475-5.233l-5.399 5.455c4.93 4.177 11.105 6.896 17.874 7.497z"/></g></g><g><path fill="#fff" d="M57.465 22.913a24.982 24.982 0 0 1 5.179 12.607h7.638a32.674 32.674 0 0 0-7.418-18.062z"/></g><g><path fill="#fff" d="M53.435 57.96a24.45 24.45 0 0 1-12.476 5.233v7.718c6.77-.6 12.945-3.32 17.874-7.496z"/></g><g><path fill="#fff" d="M62.644 41.28a24.982 24.982 0 0 1-5.179 12.607l5.399 5.455a32.675 32.675 0 0 0 7.418-18.062z"/></g><g><path fill="#ffc107" d="M45.71 38.4c0-4.242-3.403-7.68-7.6-7.68-4.198 0-7.6 3.438-7.6 7.68 0 4.242 3.402 7.68 7.6 7.68 4.197 0 7.6-3.438 7.6-7.68"/></g><g><g/><g clip-path="url(#zg9jc)"><path fill="#ffc107" d="M38.11 5.76c-1.278 0-2.547.076-3.8.225V38.4h7.6V5.985a32.193 32.193 0 0 0-3.8-.225"/></g></g></g></g></g></g></svg>