<svg xmlns="http://www.w3.org/2000/svg" width="127" height="60" viewBox="0 0 127 60"><defs><clipPath id="gieya"><path d="M0 .423h126.726v59.566H0z"/></clipPath><clipPath id="gieyb"><path d="M0 .423h126.726v59.566H0z"/></clipPath></defs><g><g><g><g/><g clip-path="url(#gieya)"><path fill="#fefefe" d="M64.961 50.344c12.665.078 24.455-.596 36.237-1.405 5.2-.356 10.352-1.056 15.187-3.179 5.587-2.45 8.919-6.68 9.828-12.75.681-4.553.602-9.147.235-13.7-.64-7.918-5.838-13.768-13.433-15.373a124.479 124.479 0 0 0-19.21-2.525C80.467.712 67.117.243 53.756.488c-12.795.235-25.559.895-38.214 2.982C6.845 4.904 1.8 9.88.413 18.644-.25 22.839.003 27.047.357 31.27c.813 9.702 6.533 14.45 15.217 16.358 2.46.542 5.007.855 7.523.924 2.02.054 2.464.868 2.356 2.683-.137 2.316-.05 4.646-.024 6.97.007.6-.3 1.423.41 1.719.718.298 1.087-.502 1.484-.937a894.655 894.655 0 0 0 7.484-8.314c.58-.652 1.125-1.101 2.133-1.04 9.613.588 19.237.83 28.021.711"/></g></g><g><g/><g clip-path="url(#gieyb)"><path fill="#7c529d" d="M64.961 50.344c-8.784.119-18.408-.123-28.02-.71-1.009-.062-1.553.387-2.134 1.04-2.48 2.784-4.97 5.56-7.484 8.313-.397.436-.766 1.235-1.483.937-.711-.296-.404-1.12-.411-1.72-.026-2.323-.113-4.653.024-6.969.108-1.815-.336-2.629-2.356-2.683a40.351 40.351 0 0 1-7.523-.924C6.89 45.72 1.17 40.972.357 31.27.003 27.047-.25 22.84.413 18.644 1.8 9.879 6.845 4.904 15.543 3.47 28.196 1.383 40.96.722 53.755.488c13.361-.245 26.711.224 40.05.924a124.478 124.478 0 0 1 19.21 2.525c7.594 1.605 12.792 7.455 13.432 15.373.367 4.553.446 9.147-.235 13.7-.91 6.07-4.241 10.299-9.828 12.75-4.835 2.123-9.986 2.823-15.187 3.18-11.782.808-23.572 1.482-36.237 1.404m2.643-24.626c0 2.957.01 5.914-.005 8.87-.006 1.132.266 2.119 1.36 2.64 1.075.513 2.103.331 2.826-.62.487-.642.737-.443 1.308-.093 3.559 2.18 7.45 1.166 9.56-2.446 2.072-3.547 1.864-7.143.014-10.672-1.603-3.059-4.76-4.291-8.062-3.31-2.335.693-2.335.693-2.338-1.854 0-.353-.014-.705.002-1.057.074-1.618-.48-2.918-2.247-2.933-1.868-.015-2.439 1.33-2.426 3.026.02 2.816.005 5.633.008 8.449m-17.758 3.217c-1.722-4.636-3.189-8.648-4.707-12.64-.539-1.417-1.409-2.564-3.162-1.94-1.735.617-2.078 1.947-1.443 3.58a4866.917 4866.917 0 0 0 6.9 17.652c.435 1.104 1.14 1.962 2.477 1.934 1.226-.026 1.901-.808 2.324-1.84.718-1.754 1.396-3.524 2.087-5.29 1.638-4.183 3.29-8.361 4.9-12.555.582-1.515.317-2.812-1.346-3.442-1.584-.6-2.539.243-3.166 1.604-.264.572-.465 1.174-.687 1.765-1.32 3.527-2.638 7.054-4.177 11.172M95.16 30.33c1.193 0 2.386.012 3.579-.003 2.541-.034 3.237-.907 2.75-3.425-.873-4.502-4.712-7.497-9.054-7.064-4.308.43-7.505 4.243-7.452 8.987.042 3.677 1.514 6.63 4.979 8.113 3.563 1.525 7.019.876 10.154-1.34.998-.706 1.533-1.697.724-2.905-.708-1.057-1.649-1.187-2.746-.592-.74.402-1.48.821-2.26 1.123-2.155.829-4.745.056-5.598-1.595-.426-.825-.4-1.324.714-1.304 1.403.026 2.807.007 4.21.005m-62.878 7.023c1.772.017 3.846-1.691 4.445-3.387.578-1.632-.642-2.28-1.606-3.057-.71-.573-1.47-1.086-2.216-1.611-1.49-1.048-2.852-1.13-3.963.556-.624.947-1.498.988-2.412.573-2.518-1.144-4.463-2.906-5.602-5.47-.504-1.134-.498-2.15.682-2.953.624-.424 1.253-.926 1.202-1.853-.065-1.209-2.996-5.248-4.153-5.674-.48-.177-.956-.165-1.443-.001-2.714.913-3.838 3.148-2.761 5.795 3.211 7.895 8.862 13.39 16.641 16.746.444.19.937.267 1.186.336m70.794-8.871c0 2.18-.034 4.361.013 6.54.03 1.363.745 2.345 2.132 2.449 1.486.111 2.393-.785 2.546-2.24.132-1.253.203-2.543.058-3.788-.412-3.569.216-6.4 4.29-7.361.987-.233 1.357-1.118 1.136-2.19-.23-1.11-.905-1.726-1.978-1.897-.955-.151-1.817.145-2.532.786-.504.452-.789.808-1.391-.049-.67-.952-1.79-.972-2.867-.514-1.046.445-1.424 1.264-1.414 2.355.02 1.97.006 3.94.007 5.909m-42.228.867c0 1.826.03 3.652-.008 5.477-.032 1.597.683 2.66 2.265 2.715 1.59.055 2.403-.968 2.406-2.563.008-3.791.02-7.583-.007-11.374-.01-1.451-.646-2.456-2.243-2.47-1.666-.017-2.396.94-2.406 2.528-.013 1.896-.003 3.791-.007 5.687M26.563 14.052c-.413.06-1.265-.285-1.318.64-.036.624.682.521 1.153.594 5.687.876 8.31 3.584 9.034 9.32.068.53-.13 1.328.625 1.342.79.016.599-.77.606-1.3.066-5.404-4.638-10.412-10.1-10.596m39.349 2.843c-.135-1.572-1.017-2.476-2.52-2.642-1.413-.156-2.686 1.18-2.677 2.642.01 1.506 1.21 2.703 2.696 2.61 1.605-.1 2.323-1.103 2.5-2.61M33.859 23.68c.029-3.35-2.838-6.399-6.348-6.821-.546-.066-1.269-.324-1.396.436-.134.798.671.717 1.188.833 3.512.786 4.736 2.066 5.314 5.556.084.508-.083 1.3.78 1.168.64-.097.409-.776.462-1.172m-2.669-.635c.025-1.617-1.799-3.486-3.356-3.447-.365.01-.723.049-.858.44-.2.584.223.723.654.792 1.442.232 2.2 1.083 2.343 2.522.04.39.287.707.664.662.522-.062.57-.528.553-.97"/></g></g><g><path fill="#faf9fb" d="M67.604 25.718c-.001-2.816.013-5.632-.007-8.448-.013-1.696.558-3.041 2.426-3.026 1.768.015 2.32 1.315 2.247 2.933-.016.351-.003.704-.002 1.056.003 2.548.003 2.548 2.339 1.854 3.302-.98 6.458.252 8.061 3.31 1.85 3.53 2.058 7.125-.014 10.673-2.11 3.611-6.001 4.625-9.56 2.446-.57-.35-.82-.55-1.308.092-.723.952-1.751 1.134-2.826.62-1.094-.521-1.365-1.507-1.36-2.639.014-2.957.005-5.914.004-8.87m11.792 3.131c.033-2.64-1.45-4.662-3.46-4.715-2.095-.056-3.631 1.83-3.671 4.506-.038 2.576 1.507 4.682 3.477 4.741 2.063.062 3.622-1.872 3.654-4.532"/></g><g><path fill="#faf9fb" d="M49.847 28.935c1.54-4.118 2.858-7.646 4.178-11.173.221-.59.423-1.192.686-1.764.628-1.361 1.582-2.204 3.166-1.604 1.664.63 1.929 1.927 1.347 3.442-1.611 4.194-3.263 8.372-4.9 12.555-.692 1.766-1.37 3.536-2.088 5.29-.422 1.032-1.098 1.814-2.324 1.84-1.336.028-2.041-.83-2.476-1.934a4715.866 4715.866 0 0 1-6.9-17.652c-.636-1.633-.293-2.963 1.443-3.58 1.753-.624 2.623.523 3.161 1.94 1.518 3.992 2.985 8.004 4.707 12.64"/></g><g><path fill="#f9f7f9" d="M95.165 30.328c-1.404 0-2.808.02-4.212-.005-1.114-.021-1.14.478-.714 1.303.853 1.65 3.444 2.423 5.599 1.594.782-.301 1.522-.72 2.262-1.122 1.097-.595 2.037-.466 2.746.591.81 1.209.275 2.199-.725 2.906-3.135 2.214-6.592 2.863-10.156 1.339-3.465-1.483-4.938-4.436-4.98-8.111-.053-4.743 3.145-8.556 7.454-8.986 4.343-.433 8.183 2.562 9.056 7.062.488 2.518-.21 3.391-2.75 3.425-1.194.015-2.387.003-3.58.004M93.1 27.126c.418 0 .845.052 1.253-.01.772-.12 2.005.468 2.226-.405.29-1.147-.655-2.076-1.708-2.596-1.374-.677-2.713-.556-3.88.505-.628.57-1.326 1.29-1.016 2.137.287.782 1.229.258 1.871.36.409.064.836.012 1.254.009"/></g><g><path fill="#faf9fb" d="M32.282 37.353c-.25-.068-.742-.145-1.186-.336-7.779-3.354-13.43-8.85-16.641-16.745-1.077-2.647.047-4.882 2.76-5.796.488-.163.965-.175 1.444.001 1.157.427 4.087 4.466 4.153 5.675.05.927-.578 1.429-1.202 1.853-1.18.802-1.186 1.82-.683 2.953 1.14 2.564 3.084 4.326 5.603 5.47.914.415 1.787.374 2.412-.573 1.11-1.685 2.473-1.604 3.963-.556.747.525 1.505 1.039 2.216 1.61.964.778 2.183 1.426 1.606 3.057-.6 1.696-2.674 3.405-4.445 3.387"/></g><g><path fill="#f9f7f9" d="M103.076 28.482c0-1.97.013-3.94-.006-5.91-.01-1.09.367-1.909 1.413-2.354 1.077-.458 2.197-.438 2.867.514.603.857.887.501 1.392.05.714-.641 1.576-.938 2.53-.787 1.074.171 1.749.786 1.979 1.898.222 1.072-.15 1.956-1.136 2.189-4.073.96-4.702 3.792-4.29 7.36.145 1.246.074 2.536-.058 3.79-.153 1.454-1.06 2.35-2.546 2.239-1.387-.104-2.102-1.085-2.132-2.448-.047-2.18-.013-4.36-.013-6.541"/></g><g><path fill="#faf9fb" d="M60.849 29.347c.002-1.895-.008-3.791.004-5.687.01-1.587.741-2.545 2.407-2.529 1.596.015 2.232 1.02 2.242 2.47.027 3.792.016 7.584.008 11.375-.004 1.596-.817 2.618-2.406 2.563-1.582-.054-2.298-1.118-2.265-2.715.037-1.825.009-3.65.01-5.477"/></g><g><path fill="#efe9f3" d="M26.564 14.052c5.462.185 10.166 5.193 10.1 10.596-.007.53.183 1.316-.606 1.3-.755-.014-.558-.812-.625-1.342-.724-5.736-3.347-8.444-9.034-9.32-.471-.072-1.19.03-1.154-.593.053-.926.906-.581 1.319-.641"/></g><g><path fill="#f9f7f9" d="M65.912 16.892c-.178 1.506-.896 2.509-2.501 2.608-1.486.092-2.686-1.103-2.696-2.608-.009-1.46 1.264-2.796 2.677-2.64 1.503.166 2.386 1.069 2.52 2.64"/></g><g><path fill="#efe9f3" d="M33.86 23.679c-.054.396.177 1.075-.462 1.172-.864.132-.696-.66-.78-1.169-.579-3.49-1.802-4.77-5.314-5.556-.518-.116-1.323-.034-1.189-.832.128-.76.85-.502 1.397-.437 3.51.422 6.376 3.472 6.348 6.822"/></g><g><path fill="#efe9f3" d="M31.188 23.044c.017.442-.03.907-.553.97-.377.044-.625-.272-.663-.663-.144-1.439-.902-2.29-2.343-2.521-.432-.07-.856-.209-.654-.793.134-.391.492-.43.857-.44 1.557-.038 3.382 1.83 3.356 3.447"/></g><g><path fill="#7c529d" d="M79.391 28.852c-.032 2.66-1.59 4.593-3.652 4.532-1.969-.06-3.512-2.166-3.475-4.741.04-2.677 1.575-4.562 3.67-4.507 2.008.054 3.49 2.075 3.457 4.716"/></g><g><path fill="#7c529d" d="M93.098 27.13c-.418 0-.845.053-1.254-.012-.643-.1-1.585.423-1.872-.36-.31-.846.388-1.566 1.016-2.137 1.168-1.061 2.507-1.182 3.883-.504 1.053.52 1.999 1.449 1.708 2.595-.22.873-1.454.285-2.226.404-.41.064-.836.012-1.255.013"/></g></g></g></svg>